<?xml version="1.0" encoding="UTF-8" standalone="no"?>
<svg
   xmlns:dc="http://purl.org/dc/elements/1.1/"
   xmlns:cc="http://creativecommons.org/ns#"
   xmlns:rdf="http://www.w3.org/1999/02/22-rdf-syntax-ns#"
   xmlns:svg="http://www.w3.org/2000/svg"
   xmlns="http://www.w3.org/2000/svg"
   xmlns:sodipodi="http://sodipodi.sourceforge.net/DTD/sodipodi-0.dtd"
   xmlns:inkscape="http://www.inkscape.org/namespaces/inkscape"
   viewBox="0 0 700 700"
   version="1.1"
   id="svg14"
   sodipodi:docname="uniqlo-logo.svg"
   width="700"
   height="700"
   inkscape:version="0.92.0 r15299"
   inkscape:export-filename="C:\Users\suitedoalex\sites\uniqlo-logo-0.png"
   inkscape:export-xdpi="561.73712"
   inkscape:export-ydpi="561.73712">
  <metadata
     id="metadata20">
    <rdf:RDF>
      <cc:Work
         rdf:about="">
        <dc:format>image/svg+xml</dc:format>
        <dc:type
           rdf:resource="http://purl.org/dc/dcmitype/StillImage" />
        <dc:title>UNIQLO home</dc:title>
      </cc:Work>
    </rdf:RDF>
  </metadata>
  <defs
     id="defs18" />
  <sodipodi:namedview
     pagecolor="#ffffff"
     bordercolor="#666666"
     borderopacity="1"
     objecttolerance="10"
     gridtolerance="10"
     guidetolerance="10"
     inkscape:pageopacity="0"
     inkscape:pageshadow="2"
     inkscape:window-width="1920"
     inkscape:window-height="1017"
     id="namedview16"
     showgrid="false"
     inkscape:zoom="0.40265803"
     inkscape:cx="349.71695"
     inkscape:cy="8.9147825"
     inkscape:window-x="-8"
     inkscape:window-y="-8"
     inkscape:window-maximized="1"
     inkscape:current-layer="g12" />
  <title
     id="title2">UNIQLO home</title>
  <g
     id="g12"
     transform="matrix(7.8158195,0,0,7.8158195,-1.7118775,769.27387)">
    <path
       d="M 50,0 H 90 V 40 H 50 Z"
       id="path4"
       inkscape:connector-curvature="0"
       style="fill:#ff0000"
       inkscape:export-filename="C:\Users\suitedoalex\sites\uniqlo-logo.png"
       inkscape:export-xdpi="559.00305"
       inkscape:export-ydpi="559.00305" />
    <path
       d="M 79.48,5.47 H 82 V 18.11 H 79.48 Z M 63.47,13.9 a 4.21,4.21 0 0 1 -8.42,0 V 5.47 h 2.53 v 8.43 a 1.68,1.68 0 1 0 3.36,0 V 5.47 h 2.53 z M 75.26,34.53 H 66.84 V 21.89 h 2.53 V 32 h 5.89 z m 0,-16.42 h -2.53 l -3.36,-7.22 v 7.22 H 66.84 V 5.47 h 2.53 l 3.36,7.23 V 5.47 h 2.53 z m -16,3.79 a 4.2,4.2 0 0 0 -4.21,4.21 v 4.21 a 4.21,4.21 0 0 0 4.21,4.21 4.47,4.47 0 0 0 0.82,-0.07 l 0.86,2.61 h 2.53 l -1.25,-3.76 a 4.19,4.19 0 0 0 1.25,-3 v -4.2 A 4.2,4.2 0 0 0 59.26,21.9 m 1.68,8.42 a 1.68,1.68 0 0 1 -3.36,0 v -4.21 a 1.68,1.68 0 1 1 3.36,0 z m 19.8,-8.42 a 4.22,4.22 0 0 0 -4.22,4.21 v 4.21 a 4.22,4.22 0 0 0 8.43,0 V 26.11 A 4.21,4.21 0 0 0 80.74,21.9 m 1.68,8.42 a 1.69,1.69 0 0 1 -3.37,0 v -4.21 a 1.69,1.69 0 0 1 3.37,0 z"
       id="path6"
       inkscape:connector-curvature="0"
       style="fill:#ffffff"
       inkscape:export-filename="C:\Users\suitedoalex\sites\uniqlo-logo.png"
       inkscape:export-xdpi="559.00305"
       inkscape:export-ydpi="559.00305" />
    <path
       d="M 0,0 H 40 V 40 H 0 Z"
       id="path8"
       inkscape:connector-curvature="0"
       style="fill:#ff0000"
       inkscape:export-filename="C:\Users\suitedoalex\sites\uniqlo-logo-1.png"
       inkscape:export-xdpi="442.18011"
       inkscape:export-ydpi="442.18011" />
    <path
       d="M 22.74,15.16 H 34.1 v 2.52 H 22.74 Z M 24,5.47 h 8.84 V 7.99 H 24 Z m -9.26,0 H 7.15 V 8 h 5.06 v 7.16 H 5.9 v 2.52 h 11.36 v -2.52 h -2.52 z m 8,16.84 V 34.53 H 34.1 V 22.31 Z M 31.57,32 h -6.31 v -7.16 h 6.31 z M 7.15,22.31 5.87,28.43 h 2.52 l 0.76,-3.59 h 5.07 L 12.73,32 H 5.14 l -0.51,2.53 h 10.11 l 2.52,-12.22 z"
       id="path10"
       inkscape:connector-curvature="0"
       style="fill:#ffffff"
       inkscape:export-filename="C:\Users\suitedoalex\sites\uniqlo-logo-1.png"
       inkscape:export-xdpi="442.18011"
       inkscape:export-ydpi="442.18011" />
    <path
       d="m 14.196412,-84.447851 h 61.607176 v 61.607177 H 14.196412 Z"
       id="path4-7"
       inkscape:connector-curvature="0"
       style="fill:#ff0000;stroke-width:1.54017937"
       inkscape:export-filename="C:\Users\suitedoalex\sites\uniqlo-logo-3.png"
       inkscape:export-xdpi="139.56079"
       inkscape:export-ydpi="139.56079" />
    <path
       d="m 59.6009,-76.02307 h 3.881252 v 19.467868 H 59.6009 Z m -24.658272,12.983713 a 6.4841555,6.4841555 0 0 1 -12.968311,0 V -76.02307 h 3.896654 v 12.983713 a 2.5875015,2.5875015 0 1 0 5.175003,0 V -76.02307 h 3.896654 z m 18.158715,31.773901 H 40.133032 v -19.467867 h 3.896654 v 15.571214 h 9.071657 z m 0,-25.289746 h -3.896652 l -5.175005,-11.120095 v 11.120095 H 40.133032 V -76.02307 h 3.896654 l 5.175005,11.135498 V -76.02307 h 3.896652 z m -24.642871,5.837282 a 6.4687536,6.4687536 0 0 0 -6.484155,6.484154 v 6.484155 a 6.4841554,6.4841554 0 0 0 6.484155,6.484155 6.884602,6.884602 0 0 0 1.262947,-0.107812 l 1.324555,4.019868 h 3.896654 l -1.925225,-5.791074 a 6.4533518,6.4533518 0 0 0 1.925225,-4.620539 v -6.468753 a 6.4687536,6.4687536 0 0 0 -6.484156,-6.484154 m 2.587502,12.968309 a 2.5875015,2.5875015 0 0 1 -5.175003,0 v -6.484155 a 2.5875015,2.5875015 0 1 1 5.175003,0 z M 61.541526,-50.71792 a 6.4995572,6.4995572 0 0 0 -6.499557,6.484154 v 6.484155 a 6.4995572,6.4995572 0 0 0 12.983713,0 v -6.484155 a 6.4841554,6.4841554 0 0 0 -6.484156,-6.484154 m 2.587502,12.968309 a 2.6029032,2.6029032 0 0 1 -5.190403,0 v -6.484155 a 2.6029032,2.6029032 0 0 1 5.190403,0 z"
       id="path6-9"
       inkscape:connector-curvature="0"
       style="fill:#ffffff;stroke-width:1.54017937"
       inkscape:export-filename="C:\Users\suitedoalex\sites\uniqlo-logo-3.png"
       inkscape:export-xdpi="139.56079"
       inkscape:export-ydpi="139.56079" />
  </g>
</svg>
